<svg xmlns="http://www.w3.org/2000/svg" width="27" height="27" fill="none">
						<path fill="#fff" fill-rule="evenodd" d="M11.595 7.801a.813.813 0 0 0-1.524 0l-.559 1.51c-.758 2.05-1.066 2.834-1.634 3.4-.567.568-1.35.876-3.4 1.635l-1.51.559a.812.812 0 0 0 0 1.524l1.51.559c2.05.758 2.833 1.066 3.4 1.634.568.567.876 1.35 1.634 3.4l.56 1.51a.813.813 0 0 0 1.523 0l.56-1.51c.758-2.05 1.066-2.833 1.633-3.4.567-.568 1.35-.876 3.4-1.634l1.51-.56a.813.813 0 0 0 0-1.523l-1.51-.56c-2.05-.758-2.833-1.066-3.4-1.633-.567-.567-.875-1.35-1.634-3.4l-.559-1.51Zm8.667-4.333a.812.812 0 0 0-1.524 0l-.24.647c-.34.919-.438 1.136-.593 1.29-.154.155-.371.254-1.29.593l-.647.24a.813.813 0 0 0 0 1.524l.647.24c.919.34 1.136.438 1.29.593.155.154.254.371.593 1.29l.24.647a.813.813 0 0 0 1.524 0l.24-.647c.34-.919.438-1.136.593-1.29.154-.155.371-.254 1.29-.593l.647-.24a.813.813 0 0 0 0-1.524l-.647-.24c-.919-.34-1.136-.438-1.29-.593-.155-.154-.254-.371-.593-1.29l-.24-.647Z" clip-rule="evenodd"/>
					</svg>