<svg xmlns="http://www.w3.org/2000/svg" width="30" height="30" fill="none" style="flex-shrink:0">
							<path fill="url(#a)" fill-rule="evenodd" d="M15.229 9.81a1.025 1.025 0 0 0-1.923 0l-.705 1.906c-.957 2.586-1.346 3.574-2.061 4.29-.716.715-1.704 1.104-4.29 2.06l-1.905.706a1.025 1.025 0 0 0 0 1.923l1.905.704c2.586.957 3.574 1.346 4.29 2.062.715.715 1.104 1.703 2.061 4.29l.705 1.905a1.025 1.025 0 0 0 1.923 0l.705-1.906c.957-2.586 1.346-3.574 2.061-4.29.716-.715 1.703-1.104 4.29-2.06l1.905-.705a1.025 1.025 0 0 0 0-1.923l-1.905-.705c-2.587-.957-3.574-1.346-4.29-2.061-.715-.716-1.104-1.704-2.061-4.29l-.705-1.905Zm10.933-5.466a1.025 1.025 0 0 0-1.922 0l-.303.817c-.428 1.158-.553 1.432-.748 1.627-.195.195-.469.32-1.627.748l-.817.303a1.025 1.025 0 0 0 0 1.922l.817.302c1.158.429 1.432.554 1.627.749.195.194.32.468.748 1.627l.302.817a1.025 1.025 0 0 0 1.923 0l.302-.817c.429-1.159.554-1.433.748-1.627.195-.195.47-.32 1.628-.749l.817-.302a1.025 1.025 0 0 0 0-1.922l-.817-.303c-1.159-.428-1.433-.553-1.628-.748-.194-.195-.319-.469-.748-1.627l-.302-.817Z" clip-rule="evenodd"/>
							<defs>
								<radialGradient id="a" cx="0" cy="0" r="1" gradientTransform="rotate(90 -2.795 17.321) scale(10.25)" gradientUnits="userSpaceOnUse">
									<stop stop-color="#fff" style="stop-color:white;stop-opacity:1"/>
									<stop offset="1" stop-color="#EE5E30" style="stop-color:#ee5e30;stop-color:color(display-p3 .9333 .3686 .1882);stop-opacity:1"/>
								</radialGradient>
							</defs>
						</svg>